<svg width="28" height="33" viewBox="0 0 28 33" fill="none" xmlns="http://www.w3.org/2000/svg">
<path fill-rule="evenodd" clip-rule="evenodd" d="M14.1877 31.7555L14.171 31.7585L14.0636 31.8115L14.0333 31.8176L14.0121 31.8115L13.9046 31.7585C13.8885 31.7535 13.8763 31.756 13.8683 31.7661L13.8622 31.7812L13.8365 32.4292L13.8441 32.4594L13.8592 32.4791L14.0166 32.5911L14.0393 32.5972L14.0575 32.5911L14.2149 32.4791L14.2331 32.4549L14.2392 32.4292L14.2134 31.7827C14.2094 31.7666 14.2008 31.7575 14.1877 31.7555ZM14.5889 31.5844L14.5692 31.5875L14.2891 31.7282L14.274 31.7434L14.2694 31.76L14.2967 32.411L14.3043 32.4292L14.3164 32.4398L14.6207 32.5805C14.6398 32.5856 14.6545 32.5816 14.6646 32.5684L14.6706 32.5472L14.6191 31.6177C14.6141 31.5996 14.604 31.5885 14.5889 31.5844ZM13.5065 31.5875C13.4998 31.5834 13.4918 31.5821 13.4842 31.5838C13.4766 31.5855 13.4699 31.59 13.4656 31.5965L13.4565 31.6177L13.405 32.5472C13.406 32.5654 13.4146 32.5775 13.4308 32.5836L13.4535 32.5805L13.7578 32.4398L13.7729 32.4276L13.779 32.411L13.8047 31.76L13.8001 31.7419L13.785 31.7267L13.5065 31.5875Z" fill="#673FB2"/>
<path fill-rule="evenodd" clip-rule="evenodd" d="M25.5992 1.32972C24.7475 0.4783 23.5926 0 22.3883 0C21.184 0 20.0291 0.4783 19.1774 1.32972L18.1071 2.40154L25.6007 9.89517L26.6695 8.82487C27.0913 8.40313 27.4259 7.90244 27.6542 7.35137C27.8825 6.80031 28 6.20968 28 5.6132C28 5.01673 27.8825 4.42609 27.6542 3.87503C27.4259 3.32397 27.0913 2.82327 26.6695 2.40154L25.5992 1.32972ZM23.4586 12.0358L15.965 4.54214L2.20394 18.3047C1.9028 18.6059 1.69244 18.9857 1.59688 19.4007L0.0391096 26.145C-0.0189335 26.3954 -0.0122757 26.6564 0.0584557 26.9035C0.129187 27.1506 0.261663 27.3756 0.443401 27.5574C0.625139 27.7391 0.850155 27.8716 1.09725 27.9423C1.34434 28.013 1.60537 28.0197 1.85575 27.9616L8.60154 26.4054C9.01604 26.3096 9.39529 26.0992 9.69606 25.7983L23.4586 12.0358Z" fill="#673FB2"/>
</svg>
