<svg width="34" height="34" viewBox="0 0 34 34" fill="none" xmlns="http://www.w3.org/2000/svg">
<path d="M4.25 4.25L29.75 29.75" stroke="#1D3980" stroke-width="2" stroke-linecap="round" stroke-linejoin="round"/>
<path fill-rule="evenodd" clip-rule="evenodd" d="M7.64999 8.82586C7.02666 9.29336 6.45574 9.78636 5.93582 10.2879C4.19948 11.9742 2.76193 13.943 1.68441 16.1104C1.55023 16.3875 1.48053 16.6914 1.48053 16.9993C1.48053 17.3072 1.55023 17.6111 1.68441 17.8883C2.76137 20.0561 4.19844 22.0253 5.93441 23.7122C8.41499 26.0993 12.0672 28.3334 17 28.3334C20.1677 28.3334 22.8083 27.4125 24.9475 26.1205L19.3602 20.5346C18.5426 21.0807 17.561 21.3265 16.5826 21.23C15.6042 21.1336 14.6895 20.7009 13.9943 20.0057C13.2991 19.3105 12.8664 18.3958 12.77 17.4174C12.6735 16.439 12.9193 15.4574 13.4654 14.6399L7.65141 8.82444L7.64999 8.82586ZM29.2768 22.4372C30.4814 21.0586 31.5028 19.5301 32.3156 17.8897C32.4497 17.6126 32.5194 17.3086 32.5194 17.0007C32.5194 16.6928 32.4497 16.3889 32.3156 16.1118C31.2386 13.944 29.8015 11.9747 28.0656 10.2879C25.585 7.90077 21.9342 5.66669 17 5.66669C15.6572 5.6628 14.3197 5.8357 13.022 6.18094L29.2768 22.4372Z" fill="#1D3980"/>
</svg>
